<?xml version="1.0" encoding="utf-8"?>
<!-- Generator: Adobe Illustrator 24.0.0, SVG Export Plug-In . SVG Version: 6.00 Build 0)  -->
<svg version="1.1" id="Layer_1" xmlns="http://www.w3.org/2000/svg" xmlns:xlink="http://www.w3.org/1999/xlink" x="0px" y="0px"
	 viewBox="0 0 300 480" style="enable-background:new 0 0 300 480;" xml:space="preserve">
<style type="text/css">
	.st0{clip-path:url(#SVGID_2_);fill:#EB3F7F;}
</style>
<g>
	<defs>
		<rect id="SVGID_1_" x="-0.9" y="26.87" width="303.48" height="424.88"/>
	</defs>
	<clipPath id="SVGID_2_">
		<use xlink:href="#SVGID_1_"  style="overflow:visible;"/>
	</clipPath>
	<path class="st0" d="M84.24,173.93c0.81-0.07,0.81,0.07,1.54-0.22c0.59-0.15,1.1-0.15,1.61,0.07c0.29,0.07,0.66,0.07,1.03,0.15
		c0.73,0,1.54,0.15,2.2,0c0.81-0.22,1.47,0.15,2.2,0c0.29-0.07,0.66,0,1.03-0.15c0.66-0.22,0.88-0.07,1.54-0.07h1.17
		c0.22-0.07,0.37-0.22,0.51-0.29c0.37-0.37,0.44-1.61,0.22-1.98c-0.29-0.37-0.81-0.22-1.17-0.22c-0.37-0.07-0.88-0.15-1.25-0.15
		c-0.29,0,0.07-0.51-0.07-0.81c-0.44-0.81,0-1.25,0-2.13c0-2.2-0.66-4.55-0.22-6.75c0.29-1.83,0.22-4.77,0.22-7.19
		c0-1.25,0.29-2.42,0.07-3.59c0.29-0.66,0.44-1.39,0.22-2.05c-0.22-0.66,0.29-1.32-0.15-1.91c-0.15-0.15-0.07-0.51,0-0.81
		c0.07-0.22,0.29-0.51,0.15-0.73c-0.51-1.32-0.15-2.71-0.29-4.11c0-0.44,0.22-0.59,0.59-0.59c1.25-0.07,2.49-0.07,3.74-0.07h2.42
		c0.95,0,0.95,0.07,1.03,0.88v0.81c0,1.61-0.07,6.38,0,6.97c-0.15,0.51,0.15,0.37,0,0.66c-0.22,0.59,0,1.91,0,2.86v2.42
		c0,0.81-0.37,1.76,0,2.49c0.22,0.51-0.07,1.61-0.07,2.42c0,0.88,0.07,1.69,0.07,2.49v2.49c0,0.81,0.15,1.61-0.07,2.42
		c-0.15,0.81,0.22,1.69-0.22,2.42c0.15,0.44,0.22,0.81,0,1.17c-0.29,0.59-1.1,0.37-1.54,0.44c-0.07,0-0.22,0-0.37,0.07
		c-0.37,0-0.51,0.22-0.51,0.51c0,0.59-0.22,1.32,0.29,1.76c0.37,0.37,1.17,0,1.69,0.07c0.37,0,0.81,0.15,1.17,0.07
		c0.66-0.07,6.31,0.07,6.97-0.07c0.51-0.22,1.32,0,1.91-0.07c0.22-0.07,0.37-0.07,0.59-0.07c0.44,0.07,0.73-0.22,0.73-0.51
		c0.15-2.13,0.37-2.2-1.76-2.13c-0.22,0-0.37,0.15-0.59,0.15c-0.44,0.07-0.51,0-0.51-0.37c-0.07-1.69,0.07-4.33,0.07-6.01
		c-0.15-2.64-0.37-4.33-0.07-6.6c0.29-10.41-0.44-11.07-0.22-11.07c0.22,0,0.22-0.88,0.22-1.32v-8.51c-0.44-2.35-0.15-4.62,0-6.75
		c-0.07-1.91,0.15-3.96,0-5.87c-0.15-1.32-0.29-2.71-0.22-4.03c0-2.13,0.15-3.89,0.07-6.01c-0.07-0.59-0.07-0.59,0.37-0.59
		c0.66,0,1.32,0,2.05-0.07c0.29,0,0.88-0.73,0.81-1.03c-0.15-0.44-0.29-0.95-0.44-1.32c-0.07-0.15-0.37-0.15-0.51-0.07
		c-1.1,0.37-7.55-0.15-8.73,0c-0.51,0.07-1.1,0.07-1.61,0c-0.51,0-1.03,0.44-1.54,0.07c-0.22-0.15-0.44,0.07-0.44,0.29
		c-0.07,0.29-0.07,0.66-0.15,0.95c-0.15,0.81,0.07,1.25,0.59,1.1c0.37-0.07,0.81,0.15,1.1,0.07c0.37,0,0.73,0,0.81,0.37
		c0,0.44-0.29,0.88-0.15,1.32c0.51,1.61,0,3.08,0,4.69c0.07,0.66,0.22,1.25,0.15,1.83c-0.07,0.59-0.15,1.17,0.07,1.76
		c-0.37,0.95,0.07,1.98,0,2.93c-0.07,1.54,0,3.15,0,4.69h0.07c0,1.03,0,2.05-0.07,3.08c-0.07,1.1,0.29,2.2-0.22,3.23H99.5
		c-0.22,0-0.51,0.15-0.81,0.07c-0.51-0.15-0.95,0.29-1.54,0.15c-0.59-0.15-1.25-0.07-1.83-0.15c-0.51,0-0.73-0.37-0.66-0.95
		c0-0.66,0.22-1.47,0-2.05c-0.29-0.81-0.22-1.61-0.22-2.42v-8.58c0-0.44-0.15-0.88,0.07-1.25c0.37-0.81,0.22-1.61,0.22-2.42
		c0.07-1.61,0.07-3.3,0.07-4.91c-0.07-1.83-0.29-1.39,1.32-1.39c0.29-0.07,0.59-0.07,0.81-0.15c0.22,0,0.37-0.15,0.37-0.37
		c0-0.37,0.07-0.73,0.07-1.03c0-0.95-0.22-1.1-1.17-0.81c-0.66,0.15-0.95,0-1.61,0c-2.2,0-4.4,0-6.6,0.07c-0.29,0-0.59,0.07-0.81,0
		c-0.37-0.07-0.66,0.37-0.95,0.15c-0.59-0.29-1.1,0.07-1.54,0c-0.66-0.07-1.17,0.07-1.76,0.07c-0.22,0-0.37,0.37-0.37,0.66v0.37
		c-0.07,0.59,0.15,0.95,0.59,1.25c0.37,0.29,0.66,0.29,1.1,0.07c0.66-0.22,1.32-0.15,2.05-0.07c0.07,0.07,0.15,0.22,0.15,0.37
		c0,0.37-0.29,0.73-0.07,1.17c0.22,0.44,0.15,1.03,0.15,1.61c0.07,2.93,0.07,5.87,0.15,8.8c0,0.37-0.15,0.88,0,1.17
		c0.37,0.88,0.29,1.76,0.29,2.64v10.93c0.07,0.66-0.22,1.25-0.15,1.91c0,0.22-0.15,0.44-0.07,0.59c0.44,1.25,0.22,2.49,0.22,3.67
		v4.77c0,0.73,0.07,1.47-0.07,2.2c-0.15,0.88,0.15,1.61,0.07,2.42c0,4.33,0.15,8.8-0.07,12.83c0.07,0.66,0.29,1.47,0.07,1.76
		c-0.15,0.29-0.73,0.15-1.76,0.15h-1.03c-0.44,0-0.88,0.44-0.88,0.95c0,0.37,0.07,0.66,0.07,1.03
		C83.43,173.49,83.87,173.93,84.24,173.93z"/>
	<path class="st0" d="M119.96,154.06c-0.15,0.07-0.37-0.22-0.37-0.37c0.29-1.1,0.22-2.27,0.44-3.37c0.22-0.88,0.07-1.83,0.37-2.64
		c0.22-0.81,0.15-1.61,0.22-2.42c0.07-0.66,0.22-1.32,0.37-1.98c0.37-2.13,0.51-4.25,0.95-6.38v-0.15c0-2.05,0.51-4.03,0.73-6.01
		l0.44-3.45l0.15-0.15c0,0.07,0.07,0.07,0.07,0.15c0.15,0.81,0.37,1.61,0.37,2.42c0,1.39,0.59,2.64,0.44,4.03
		c0.44,1.61,0.51,3.3,0.81,4.99c0.22,1.32,0.59,2.57,0.66,3.96c0,0.29,0.15,0.66,0.22,0.95c0.22,1.39,0.15,2.79,0.73,4.03
		c0.44,1.03,0.29,2.27,0.66,3.45c0.07,0.73,0.29,1.32,0.44,1.98c0.07,0.37-0.15,0.59-0.51,0.66c-0.88,0.15-2.13,0.15-3.37,0h-2.64
		C120.69,153.76,120.32,153.84,119.96,154.06z M117.32,174.15c0.59-0.15,1.54-0.51,2.13-0.07c0.29-0.15,0.66-0.29,0.95-0.51
		c0.44-0.44,0.51-1.69,0.07-2.13c-0.37-0.29-0.81-0.22-1.32-0.15c-0.37,0.07-1.25,0.07-1.61,0.07c-0.29-0.07-0.44-0.22-0.44-0.51
		c0.15-0.95,0.22-2.27,0.37-3.23c0.07-0.22,0.15-0.51,0.15-0.73c0.29-1.47,0.73-2.93,0.81-4.4c0.15-1.83,0.51-3.59,0.81-5.43
		c0.07-0.29,0.22-0.37,0.44-0.51c0.37-0.37,0.81,0,1.17-0.22c0.73,0.44,1.47,0.22,2.2,0.22c0.88,0,1.76-0.07,2.64-0.07
		c0.59,0.22,1.32-0.22,2.13,0.15c0.29,0,0.44,0.07,0.51,0.44c0.15,0.81,0.66,2.42,0.44,2.57c-0.22,0.15,0.51,1.61,0.44,2.57
		l0.22,1.25c0.22,1.03,0.44,1.98,0.37,3.01c0,0.29,0.15,0.59,0.22,0.95c0.07,0.66,0.44,1.17,0.29,2.05c0.07,0.37,0.15,0.73,0.15,1.1
		c0.07,0.51-0.15,0.81-0.59,0.81c-0.66-0.07-1.69,0.15-2.35,0.22c-0.15,0.07-0.29,0.22-0.22,0.44c0,0.37,0,0.73,0.07,1.03
		c0.07,0.66,0.37,0.88,0.95,0.95c0.66,0,1.76,0,2.49-0.22c0.66,0.44,1.47,0.07,2.27,0.15h1.76v-0.07h0.88
		c1.39,0.15,2.71,0,4.11-0.22c0.51-0.07,0.88-0.51,0.88-1.1c0-1.54-0.07-1.69-1.32-1.54c-0.22,0-0.51,0-0.66,0.07
		c-0.29,0.22-0.66,0.07-0.73-0.29c-0.22-0.66-0.29-1.32-0.44-2.05c-0.66-5.87-1.39-6.45-1.03-6.67c0.15-0.07-0.88-3.96-0.88-6.01
		c-0.59-1.83-0.44-3.89-1.1-5.72c-0.15-0.29-0.07-0.59-0.07-0.95c-0.22-1.91-0.66-3.74-1.03-5.57c-0.07-0.29-0.15-0.66-0.15-0.95
		c0-1.39-0.44-2.71-0.66-3.96c-0.15-0.66-0.44-1.17-0.37-1.83c0.07-1.25-0.37-2.49-0.51-3.81c-0.22-1.25-0.44-2.49-0.81-3.74
		c-0.37-1.17-0.51-2.49-0.51-3.74c0-0.07-0.07-0.15-0.07-0.22c-0.22-0.44-0.22-0.88-0.29-1.39c-0.07-0.51-0.22-1.03-0.29-1.54
		c-0.37-1.91-0.66-3.81-0.95-5.79c-0.22-1.39-0.81-2.27-0.59-3.74l-0.37-1.25c-0.07-0.81-0.44-0.73-1.1-0.81
		c-0.95,0-1.83,0-2.79,0.07c-0.59,0-0.73,0.22-0.88,0.95c-0.29,1.32-0.44,2.64-0.73,3.96c-0.07,0.59-0.29,1.1-0.22,1.61
		c0,1.1-0.29,2.13-0.51,3.23c-0.07,0.66-0.15,1.32-0.37,1.98c-0.29,1.1-0.07,2.27-0.59,3.37c0.07,1.17-0.37,2.2-0.37,3.37
		c0,1.32-0.51,2.57-0.44,3.81c-0.37,0.66-0.29,1.39-0.29,2.05c0,0.73-0.37,1.39-0.29,2.2c0,1.39-0.37,2.79-0.59,4.18
		c-0.29,1.91-0.59,3.89-0.81,5.79c-0.22,1.54-0.22,3.15-0.51,4.69c-0.15,0.95-0.07,1.91-0.37,2.79c-0.29,1.03-0.29,2.13-0.51,3.15
		c-0.22,1.17-0.59,2.27-0.44,3.45c-0.44,1.1-0.29,2.27-0.59,3.37c-0.37,1.54-0.59,3.52-0.81,5.13c-0.07,0.73-0.22,1.03-1.17,0.95
		c-0.44,0-0.81,0.15-1.17,0.44c-0.29,0.15-0.37,0.44-0.37,0.81v0.37c0,0.81,0.59,1.47,1.25,1.17c0.66-0.37,1.69-0.15,2.35,0
		C116.07,174.08,116.88,173.64,117.32,174.15z"/>
	<path class="st0" d="M151.57,144.3c-0.29-0.22-0.15-0.73-0.15-1.17v-3.23c-0.15-1.61-0.07-3.3-0.22-4.91
		c-0.15-1.03,0.07-2.13-0.15-3.23c-0.15-1.17-0.07-2.35-0.07-3.52c-0.07-1.17,0-2.27-0.07-3.45c0-0.66,0.22-1.39-0.22-1.98
		c0-0.59,0.37-1.17,0.07-1.76c0.51-0.66-0.15-1.39,0.15-2.13c0.15-0.59,0.15-1.39,0-1.98c-0.22-0.95,0.29-1.91-0.22-2.79
		c-0.15-0.22,0.07-0.51,0.37-0.59c1.61-0.22,3.3,0.44,4.18,1.69c0.66,1.03,1.03,2.2,1.47,3.37c0.22,0.66,0.51,2.13,0.95,2.71
		c0.15,1.39,0,1.83-0.07,3.23c0,0.51,0,0.95,0.22,1.47c0.07,0.15,0.07,0.37,0,0.59c-0.37,0.88-0.22,1.83-0.22,2.79
		c0,1.47,0.07,3.01-0.44,4.47c0.07,1.98-0.37,4.25-0.88,6.09c-0.22,0.88-0.88,1.39-1.17,2.13c-0.22,0.73-0.66,1.03-1.39,1.39
		c-0.15,0.07-0.37,0.66-0.66,0.44C152.67,144.23,152.08,144.52,151.57,144.3z M140.27,173.93c0.51,0,1.1,0,1.61-0.15
		c0.81-0.29,1.61-0.22,2.42-0.07c0.29,0.07,0.51,0.15,0.81,0.07c2.05-0.29,2.42-0.29,4.99,0.07c0.22,0.07,0.51,0.07,0.59,0
		c0.73-0.44,1.47-0.37,2.2-0.29c0.81,0,2.64,0.15,3.37,0c0.29-0.07,0.51-0.51,0.37-0.81c-0.22-0.59,0.15-1.47-0.59-1.76
		c-0.66-0.22-2.93-0.15-3.52,0c-0.44,0.15-0.73-0.07-0.88-0.59c0-0.15-0.15-0.29-0.07-0.37c0.29-0.95-0.15-1.83-0.15-2.71v-7.04
		c-0.07-3.74-0.07-7.48-0.07-11.22v-0.88c0-0.29,0.15-0.51,0.44-0.66c1.17-0.29,3.67-0.44,4.91-1.17c0.59-0.37,2.35-1.17,2.79-1.76
		c0.59-0.73,1.54-1.61,2.27-2.27c0.07-0.07,0.15-0.22,0.15-0.37c-0.07-0.88,1.61-3.08,1.83-3.89c0.29-0.95,0.95-1.91,0.88-2.93
		c0-0.44-0.07-0.88,0.07-1.25c0.51-1.25,0.44-1.98,0.51-3.3v-2.42c0-0.59,0.44-1.03,0.07-1.61c-0.37-0.44,0.15-1.03,0-1.54
		c-0.22-1.17-1.17-3.74-1.39-4.99c-0.44-2.05-1.61-4.18-3.15-5.5c-1.76-2.64-7.7-2.79-10.78-3.01c-0.81-0.07-1.69,0.07-2.42-0.15
		c-0.88-0.29-1.69,0.07-2.57-0.07c-0.44,0.29-0.88,0.22-1.39,0.22c-1.17,0-2.35,0-3.45,0.07c-0.29,0-0.59,0-0.81,0.07
		c-0.59,0.07-0.95,0.66-0.81,1.17c0.29,1.25,0.29,1.25,1.39,1.17h0.88v-0.07h1.17c0.59,0,0.81,0.22,0.81,0.73
		c0,3.23-0.07,6.45,0,9.68c0,0.88,0,1.76,0.07,2.64c0,0.95-0.29,1.98,0.07,2.86c0.37,0.88-0.15,1.69,0,2.49
		c0.07,0.44,0.29,0.81,0.15,1.17c-0.44,1.25-0.29,2.49-0.15,3.67c0,0.51,0.07,1.03,0,1.47c-0.07,0.66-0.15,1.25,0.07,1.83
		c0.22,0.59-0.37,1.17-0.15,1.76c0.07,0.22,0.15,0.37,0.15,0.59c0.22,0.88,0.37,1.76,0,2.57c-0.22,0.59,0.15,1.1-0.07,1.61
		c-0.22,0.59-0.07,1.17,0.15,1.76c0.15,0.51,0.07,1.1,0.07,1.61v10.71c0,0.59,0.15,1.17-0.15,1.76c-0.07,0.15,0,0.29,0,0.37
		c0.37,2.57,0.07,5.06,0.15,7.55c0,0.59-0.15,0.66-0.81,0.66c-1.03,0.07-2.05,0.07-3.08,0.15c-0.37,0-0.51,0.22-0.59,0.66
		C138.66,173.71,138.88,173.93,140.27,173.93z"/>
	<path class="st0" d="M179.95,144.3c-0.29-0.22-0.15-0.73-0.15-1.17v-3.23c-0.15-1.61-0.07-3.3-0.22-4.91
		c-0.15-1.03,0.07-2.13-0.15-3.23c-0.15-1.17-0.07-2.35-0.07-3.52c-0.07-1.17,0-2.27-0.07-3.45c0-0.66,0.22-1.39-0.22-1.98
		c0-0.59,0.37-1.17,0.07-1.76c0.51-0.66-0.15-1.39,0.15-2.13c0.15-0.59,0.15-1.39,0-1.98c-0.22-0.95,0.29-1.91-0.22-2.79
		c-0.15-0.22,0.07-0.51,0.37-0.59c1.61-0.22,3.3,0.44,4.18,1.69c0.66,1.03,1.03,2.2,1.47,3.37c0.22,0.66,0.51,2.13,0.95,2.71
		c0.15,1.39,0,1.83-0.07,3.23c0,0.51,0,0.95,0.22,1.47c0.07,0.15,0.07,0.37,0,0.59c-0.37,0.88-0.22,1.83-0.22,2.79
		c0,1.47,0.07,3.01-0.44,4.47c0.07,1.98-0.37,4.25-0.88,6.09c-0.22,0.88-0.88,1.39-1.17,2.13c-0.22,0.73-0.66,1.03-1.39,1.39
		c-0.15,0.07-0.37,0.66-0.66,0.44C181.05,144.23,180.46,144.52,179.95,144.3z M168.66,173.93c0.51,0,1.1,0,1.61-0.15
		c0.81-0.29,1.61-0.22,2.42-0.07c0.29,0.07,0.51,0.15,0.81,0.07c2.05-0.29,2.42-0.29,4.99,0.07c0.22,0.07,0.51,0.07,0.59,0
		c0.73-0.44,1.47-0.37,2.2-0.29c0.81,0,2.64,0.15,3.37,0c0.29-0.07,0.51-0.51,0.37-0.81c-0.22-0.59,0.15-1.47-0.59-1.76
		c-0.66-0.22-2.93-0.15-3.52,0c-0.44,0.15-0.73-0.07-0.88-0.59c0-0.15-0.15-0.29-0.07-0.37c0.29-0.95-0.15-1.83-0.15-2.71v-7.04
		c-0.07-3.74-0.07-7.48-0.07-11.22v-0.88c0-0.29,0.15-0.51,0.44-0.66c1.17-0.29,3.67-0.44,4.91-1.17c0.59-0.37,2.35-1.17,2.79-1.76
		c0.59-0.73,1.54-1.61,2.27-2.27c0.07-0.07,0.15-0.22,0.15-0.37c-0.07-0.88,1.61-3.08,1.83-3.89c0.29-0.95,0.95-1.91,0.88-2.93
		c0-0.44-0.07-0.88,0.07-1.25c0.51-1.25,0.44-1.98,0.51-3.3v-2.42c0-0.59,0.44-1.03,0.07-1.61c-0.37-0.44,0.15-1.03,0-1.54
		c-0.22-1.17-1.17-3.74-1.39-4.99c-0.44-2.05-1.61-4.18-3.15-5.5c-1.76-2.64-7.7-2.79-10.78-3.01c-0.81-0.07-1.69,0.07-2.42-0.15
		c-0.88-0.29-1.69,0.07-2.57-0.07c-0.44,0.29-0.88,0.22-1.39,0.22c-1.17,0-2.35,0-3.45,0.07c-0.29,0-0.59,0-0.81,0.07
		c-0.59,0.07-0.95,0.66-0.81,1.17c0.29,1.25,0.29,1.25,1.39,1.17h0.88v-0.07h1.17c0.59,0,0.81,0.22,0.81,0.73
		c0,3.23-0.07,6.45,0,9.68c0,0.88,0,1.76,0.07,2.64c0,0.95-0.29,1.98,0.07,2.86c0.37,0.88-0.15,1.69,0,2.49
		c0.07,0.44,0.29,0.81,0.15,1.17c-0.44,1.25-0.29,2.49-0.15,3.67c0,0.51,0.07,1.03,0,1.47c-0.07,0.66-0.15,1.25,0.07,1.83
		c0.22,0.59-0.37,1.17-0.15,1.76c0.07,0.22,0.15,0.37,0.15,0.59c0.22,0.88,0.37,1.76,0,2.57c-0.22,0.59,0.15,1.1-0.07,1.61
		c-0.22,0.59-0.07,1.17,0.15,1.76c0.15,0.51,0.07,1.1,0.07,1.61v10.71c0,0.59,0.15,1.17-0.15,1.76c-0.07,0.15,0,0.29,0,0.37
		c0.37,2.57,0.07,5.06,0.15,7.55c0,0.59-0.15,0.66-0.81,0.66c-1.03,0.07-2.05,0.07-3.08,0.15c-0.37,0-0.51,0.22-0.59,0.66
		C167.04,173.71,167.26,173.93,168.66,173.93z"/>
	<path class="st0" d="M200.01,173.49c1.1-0.22,2.2-0.15,3.3-0.15h6.89c0.66,0,1.32,0.07,1.83-0.15c0.66-0.29,1.17-0.15,1.76-0.07
		c0.37,0.07,0.81-0.22,1.17-0.37c0.07,0,0.15-0.22,0.15-0.29c-0.07-0.29-0.07-0.59-0.15-0.81c-0.44-0.81-0.66-0.95-1.76-0.88
		c-0.59,0.07-1.1,0-1.61,0c-0.37,0-0.51-0.22-0.51-0.51c0-1.98-0.29-5.5-0.07-5.94c0.22-0.44-0.22-8.36-0.07-8.58
		c0.15-0.29,0.22-2.35,0.07-1.76c-0.51-0.51,0-5.65,0-8.51c0-0.59,0-1.1,0.07-1.61c0-0.51,0.37-1.03,0.22-1.39
		c-0.15-0.59,0.07-1.03,0.29-1.47c0.07-0.15,0.15-0.29,0.15-0.37c0.29-1.91,0.66-3.74,0.81-5.65c0.15-1.1,0.15-2.2,0.59-3.23
		c0.37-1.03,0.15-2.13,0.51-3.15l0.22-0.59c0-0.44,0.15-0.81-0.22-1.17c-0.07-0.15-0.07-0.22,0.07-0.29
		c0.37-0.15,0.51-0.37,0.51-0.81c0.07-0.51,0.22-1.03,0.37-1.54c0.37-1.39,0.73-2.79,0.88-4.18c0.15-1.39,0.37-2.71,0.73-3.96
		c0.07-0.29,0.07-0.59,0.07-0.81c0.07-2.13,0-1.83,1.98-1.91h1.61c0.44,0,0.73-0.44,0.59-0.88c-0.15-0.37,0.15-0.73,0-1.17
		c-0.07-0.29-0.73-0.37-1.03-0.29c-0.15,0-0.29,0.15-0.37,0.15c-1.76-0.44-3.59-0.07-5.35-0.22c-0.66-0.07-1.32,0.29-1.98,0.37
		c-0.51,0.07-0.88,0.81-0.66,1.32c0.22,0.59,0.66,1.03,1.32,1.1h0.81c0.51,0,0.81,0.37,0.59,0.81c-0.37,1.1-0.37,2.27-0.37,3.45
		c0,0.44-0.07,0.88-0.22,1.39c-0.51,1.76-1.03,3.52-1.32,5.28c-0.37,2.35-0.95,4.62-1.32,6.97c-0.07,0.51-0.37,0.95-0.37,1.39
		c0.07,1.17-0.37,2.27-0.44,3.45c0,0.07-0.29,1.83-0.37,1.83l-0.44-2.05c-0.22-0.88-0.51-1.47-0.51-2.27c0-0.88-0.44-1.69-0.29-2.57
		c0-0.29-0.07-0.59-0.22-0.81c-0.44-1.17-0.59-2.49-1.1-3.67c-0.07-0.22-0.15-0.37-0.07-0.51c0.22-0.44,0.07-0.81,0-1.17
		c-0.66-2.13-0.95-4.25-1.47-6.31c-0.37-1.69-0.59-3.37-1.1-4.99c-0.07-0.29,0.07-0.51,0.37-0.51c0.88,0,1.76,0,2.71-0.07
		c0.37,0,0.73-0.29,0.88-0.73c0.07-0.29,0.22-1.03-0.15-1.32c-0.59-0.51-1.61-0.44-2.35-0.44c-0.73,0.07-1.39,0-2.05,0.07
		c-1.98,0.15-3.15-0.37-5.06,0.22c-1.83-0.66-3.59,0.29-5.35,0.15c-0.73-0.07-1.03,0.59-0.81,1.32c0.51,1.25,0.88,1.17,1.91,1.1
		c0.15-0.07,0.37-0.22,0.51-0.22c0.44-0.15,0.88,0.15,0.95,0.51c0.07,0.59,0,1.25,0.22,1.83c0.22,0.73,0.22,1.47,0.44,2.2
		c0.22,0.73,0.29,1.54,0.37,2.35c0,0.29,0.07,0.51,0.15,0.81c0.59,2.42,1.32,4.84,1.47,7.33c0,0.22,0.29,0.66,0.37,0.81
		c0.22,2.42,1.17,3.96,1.69,6.16c0.37,1.61,0.66,3.52,1.03,5.06c0.22,0.88,0.88,2.57,0.73,3.45c-0.15,0.95,0.22,1.03,0.22,1.98
		c0.15,1.83-0.15,4.4,0,5.13c-0.22,0,0.29,1.1,0,1.39c-0.22,0.22,0.29,3.45,0.07,3.74c-0.29,0.37-0.07,0.81-0.07,1.17
		c0,1.91-0.15,6.23,0.15,6.82c0.22,0.59-0.07,0.81-0.15,0.81c-0.37-0.07,0,3.37,0,5.13c0,0.44-0.15,0.66-0.73,0.66
		c-0.81,0.07-1.69,0-2.49,0.07c-0.51,0-0.95,0.66-0.81,1.17l0.29,0.73C198.98,173.34,199.42,173.56,200.01,173.49z"/>
	<path class="st0" d="M44.67,261.48c0.15,0,0.29,0,0.44-0.07c0.51-0.29,1.03-0.22,1.61-0.22h4.03c0.44,0,0.81,0,1.25-0.07
		c0.29,0,0.51-0.44,0.44-0.73c-0.22-0.88-0.22-1.61-1.03-1.69H49c-0.29,0-0.51-0.22-0.51-0.51v-1.03c0.07-1.1,0-2.49,0.07-3.59
		c0.07-0.51-0.29-0.81-0.22-1.32c0.37-2.35,0.37-4.77,0.15-7.11c-0.22-2.71-0.22-5.43-0.15-8.14c0-2.05,0-4.11,0.07-6.16
		c0-0.44,0-0.95-0.29-1.39c-0.29-0.29,0.44-0.73-0.07-1.03c0-0.07,0-0.95,0.07-1.17c0.44-1.25,0.44-2.49,0.15-3.81
		c-0.15-0.73-0.22-1.47,0.07-2.2c0.07-0.44,0.22-0.81-0.07-1.17c-0.22-0.44,0.37-0.81,0.22-1.17c-0.44-0.88-0.22-1.83-0.22-2.79
		c-0.15-1.91,0.29-3.81-0.29-5.72c-0.07-0.15,0-0.37,0-0.59c0.51-1.91,0.37-3.81,0.29-5.72c0-0.88,0.22-1.69,0.22-2.57
		c0-0.15,0.44-0.51,0.51-0.44c0.81,0.37,1.39,0.07,2.2,0.15c0.29,0,0.51,0.07,0.66,0.44c0.29,1.17,0.59,2.35,0.95,3.45
		c0.44,1.32,0.81,2.64,1.03,3.96c0.15,0.88,0.59,3.15,0.95,3.96c0.07,0.22,0.22,0.29,0.44,0.29c1.76,0,2.05-0.73,2.05-3.08
		c0-0.44,0.07-0.81,0-1.25c-0.29-1.32,0.15-2.49,0.07-3.89c0-1.39,0.22-2.86-0.29-4.25c0.15-1.17-0.07-1.83-0.44-1.98
		c-0.66-0.07-2.86,0.15-3.37-0.07c-0.44-0.22-0.81-0.15-1.32,0c-0.51,0.07-1.1,0.07-1.61,0.07h-4.33c-0.73-0.07-1.54,0.15-2.27-0.07
		c-0.73-0.22-1.39-0.15-2.13,0c-0.15,0-0.22-0.07-0.37-0.07c-1.17-0.22-2.35,0-3.52,0c-0.44,0-2.57,0.37-2.93,0.15
		c-0.51-0.29-0.95-0.07-1.39,0.15c-0.15,0-0.37-0.07-0.59-0.15c-0.59-0.22-0.81-0.15-1.39-0.15c-0.66,0-1.1,0.37-1.1,1.03
		c0,0.95-0.29,1.76-0.15,2.79l0.07,1.03c-0.07,1.17-0.15,1.91-0.15,3.08h0.07l-0.07,4.18c0,0.22,0,1.83,0.15,2.05
		c0.07,0.22,0.29,0.51,0.51,0.59c0.44,0.07,0.88-0.15,1.25,0c0.07,0,0.15,0,0.22-0.07c0.15-0.07,0.29,0.15,0.37,0
		c0.29-1.61,1.47-5.57,1.76-7.11c0.15-0.51,0.15-0.95,0.37-1.39l0.73-2.57c0.37-1.17,1.54-0.73,2.79-0.73
		c0.37,0,0.73-0.29,1.17-0.29c0.22,0,0.37,0.22,0.37,0.44c0.07,0.15,0.07,0.37,0.07,0.59c0,0.88-0.07,1.76-0.07,2.64v2.71
		c0,0.95-0.07,1.91-0.07,2.86c0,0.88-0.15,1.76,0,2.64c0.15,0.88-0.07,1.76-0.07,2.64c0,0.51-0.15,1.1,0.07,1.61
		c0.29,0.81,0.22,1.61,0.22,2.42v1.83c0,0.59-0.15,1.25,0.07,1.83c0.22,0.66-0.07,1.17-0.07,1.76c0,0.44,0.44,0.88,0.07,1.32
		c0.37,0.44-0.15,0.95,0.07,1.32c0.22,0.51-0.29,0.88-0.22,1.32c0.15,0.59-0.07,1.1,0.22,1.61c0.07,0.29,0.15,0.51,0,0.81
		c-0.29,0.37-0.22,0.81-0.22,1.17c0,0.66,0.22,1.32,0,1.98c0.44,0.66-0.22,1.25-0.07,1.98c0.15,0.59,0,1.32,0.15,1.98
		c0.07,0.66-0.15,1.32-0.15,2.05c0,0.29,0.22,0.66,0.15,0.95c-0.15,0.37-0.37,0.81-0.15,1.17c0.37,0.51,0,1.03,0.07,1.54
		c0.15,0.51,0.15,1.1,0.15,1.61v3.67c0.37,2.2-0.15,5.65-0.15,8.29c0,0.51-0.15,0.66-0.59,0.66c-1.03,0-2.05,0-3.08,0.07
		c-0.29,0-0.44,0.22-0.44,0.51c-0.07,0.29-0.07,0.59,0,0.81c0,0.66,0.37,0.95,1.03,1.03c0.22,0,0.44,0.07,0.66,0.07
		c1.17,0,2.42-0.07,3.67,0C42.25,261.26,43.5,260.97,44.67,261.48z"/>
	<path class="st0" d="M66.16,261.33c0.81-0.29,1.54,0.15,2.35,0c0.15,0,0.29,0.07,0.37,0c0.81-0.44,1.61-0.29,2.42-0.29
		c2.42-0.07,6.53-0.07,8.95-0.07c0.73,0,1.47-0.22,2.13-0.44c0.37-0.07,0.59-0.44,0.51-0.73c-0.44-1.17-0.37-2.42-0.44-3.67
		c0-1.03,0.15-2.05-0.22-3.01c0-0.15,0-0.29,0.07-0.37c0.29-1.61,0-3.3,0.07-4.91c0.07-1.17-0.88-1.83-2.05-1.54
		c-0.29,0.07-0.59,0.29-0.59,0.73c0,1.03-0.37,2.13-0.51,3.15c-0.22,1.03-0.29,2.05-0.73,2.93c-0.51,1.03-0.37,2.13-0.88,3.15
		c-0.22,0.51-0.29,1.17-0.44,1.76c-0.07,0.29-0.22,0.51-0.51,0.51h-4.84c-0.29,0-0.44-0.22-0.29-0.51c0.07-0.22,0.15-0.44,0-0.59
		c-0.29-0.44-0.15-0.95-0.22-1.39c0-0.37,0.29-0.88,0.15-1.17c-0.22-0.44,0.07-0.95-0.37-1.32c-0.22-0.22,0.07-0.37,0.15-0.51
		c0.07-0.95,0.73-1.76,0.15-2.79c-0.15-0.22-0.15-0.66,0-0.95c0.22-0.51,0.15-0.88,0-1.32c-0.15-0.51,0.29-0.95,0.07-1.61
		c-0.51-1.39,0-2.93-0.44-4.4c-0.07-0.22,0-0.51,0.07-0.81c0.29-0.95,0.22-1.98,0.15-3.01c0-0.66,0.07-1.39-0.07-2.05
		c-0.15-0.73,0.22-1.39,0.15-2.13c-0.07-1.39-0.07-2.79,0-4.11v-2.27c0-0.07,0.15-0.22,0.29-0.29h4.33c0.15,0,0.29,0.15,0.37,0.37
		c0.22,0.51,0.15,0.66,0.07,1.17c0,0.59,0.07,1.25,0.07,1.83c0,0.51,0.22,0.88,0.44,1.32c0.07,0.22,0.51,0.59,0.73,0.59
		c0.29,0,0.44-0.29,0.73-0.29c0.37,0,0.51-0.15,0.59-0.44v-0.66c0-1.83,0-3.67-0.07-5.5c-0.07-1.83-0.29-3.37-0.15-5.21
		c0.07-0.07,0-0.15,0-0.22c-0.07-0.37-0.66-0.73-0.95-0.66c-0.29,0.07-0.59,0.22-0.95,0.29c-0.37,0.07-0.59,0.29-0.59,0.73
		c0,1.17,0.07,2.42,0.07,3.67c0,0.29-0.22,0.51-0.51,0.51l-3.37,0.07c-1.25,0-1.1-0.22-1.17-1.1c0-0.95,0.07-1.98,0.07-2.93
		c0-0.29-0.22-0.59-0.22-0.88c0.37-2.35,0.07-4.47,0.15-6.75c0.07-0.44-0.22-0.81-0.22-1.17c-0.07-0.51,0.22-0.95,0.22-1.39v-4.55
		h0.07c0-1.54-0.07-3.15,0-4.69c0-0.29,0.15-0.51,0.44-0.51c3.01,0,4.18-0.73,5.43,2.49c0.15,0.44,0.29,0.81,0.37,1.17
		c0.22,1.25,0.73,2.35,1.03,3.52c0.22,0.81,0.59,1.61,0.59,2.57c0,0.29,0.29,0.44,0.59,0.44h0.59c0.81,0,1.1-0.29,1.25-1.03
		c0.15-1.03-0.44-1.98-0.07-2.93c0.07-0.15,0.07-0.29,0-0.44c-0.37-0.59-0.22-1.32-0.22-1.98c-0.07-1.39,0-2.71,0-4.11
		c-0.07-0.95-0.22-1.1-1.1-1.54c-0.51-0.29-1.03,0.29-1.54-0.15c-0.15-0.15-0.44-0.15-0.59-0.07c-0.66,0.29-2.2,0-2.86,0
		c-2.13,0-5.21-0.44-7.33,0.22c-0.66-0.51-1.17-0.15-1.76-0.15h-2.86c-0.88,0-1.76,0.07-2.64,0.07c-0.81,0-1.25,0.29-1.54,0.81
		c-0.22,0.37,0.22,0.73,0.22,1.1c0,0.37,0.29,0.51,0.51,0.51c0.44,0.07,1.03,0,1.39,0c1.03-0.07,1.1,0,1.1,0.95
		c0.07,0.59,0.07,1.47,0.15,2.05c0,0.66-0.07,1.32,0,1.91c0.15,0.73,0.22,1.47,0.22,2.27c0,2.05-0.15,4.18,0.22,6.23
		c0.22,1.17-0.22,3.74-0.22,5.65c0,1.54,0,3.15,0.07,4.69c0.07,1.54-0.29,3.15,0.29,4.62c0.07,0.07,0.07,0.15,0,0.22
		c-0.51,0.51,0,1.03,0,1.54c0,1.1,0.15,2.27-0.22,3.45c-0.22,0.66-0.22,1.47,0.15,2.2c0.15,0.44,0.07,0.95,0,1.39
		c-0.29,1.76-0.29,3.52,0,5.28c0.15,0.95,0.22,1.91,0,2.86c-0.22,1.03-0.22,2.13-0.22,3.23v6.75c0,0.44,0,0.81-0.07,1.25
		c0,0.29-0.15,0.51-0.51,0.51c-0.29,0-0.66,0.07-0.95,0.07c-0.66,0-1.25,0.07-1.83,0.37c-0.29,0.15-0.37,0.29-0.37,0.59
		c-0.07,0.22-0.07,0.44,0,0.59c0.07,0.81,0.51,1.25,1.32,1.03c1.17-0.22,2.35-0.22,3.45,0C64.55,261.26,65.43,261.55,66.16,261.33z"
		/>
	<path class="st0" d="M89.41,241.31c-0.15,0.07-0.37-0.22-0.37-0.37c0.29-1.1,0.22-2.27,0.44-3.37c0.22-0.88,0.07-1.83,0.37-2.64
		c0.22-0.81,0.15-1.61,0.22-2.42c0.07-0.66,0.22-1.32,0.37-1.98c0.37-2.13,0.51-4.25,0.95-6.38V224c0-2.05,0.51-4.03,0.73-6.01
		l0.44-3.45l0.15-0.15c0,0.07,0.07,0.07,0.07,0.15c0.15,0.81,0.37,1.61,0.37,2.42c0,1.39,0.59,2.64,0.44,4.03
		c0.44,1.61,0.51,3.3,0.81,4.99c0.22,1.32,0.59,2.57,0.66,3.96c0,0.29,0.15,0.66,0.22,0.95c0.22,1.39,0.15,2.79,0.73,4.03
		c0.44,1.03,0.29,2.27,0.66,3.45c0.07,0.73,0.29,1.32,0.44,1.98c0.07,0.37-0.15,0.59-0.51,0.66c-0.88,0.15-2.13,0.15-3.37,0h-2.64
		C90.14,241.02,89.78,241.09,89.41,241.31z M86.77,261.41c0.59-0.15,1.54-0.51,2.13-0.07c0.29-0.15,0.66-0.29,0.95-0.51
		c0.44-0.44,0.51-1.69,0.07-2.13c-0.37-0.29-0.81-0.22-1.32-0.15c-0.37,0.07-1.25,0.07-1.61,0.07c-0.29-0.07-0.44-0.22-0.44-0.51
		c0.15-0.95,0.22-2.27,0.37-3.23c0.07-0.22,0.15-0.51,0.15-0.73c0.29-1.47,0.73-2.93,0.81-4.4c0.15-1.83,0.51-3.59,0.81-5.43
		c0.07-0.29,0.22-0.37,0.44-0.51c0.37-0.37,0.81,0,1.17-0.22c0.73,0.44,1.47,0.22,2.2,0.22c0.88,0,1.76-0.07,2.64-0.07
		c0.59,0.22,1.32-0.22,2.13,0.15c0.29,0,0.44,0.07,0.51,0.44c0.15,0.81,0.66,2.42,0.44,2.57c-0.22,0.15,0.51,1.61,0.44,2.57
		l0.22,1.25c0.22,1.03,0.44,1.98,0.37,3.01c0,0.29,0.15,0.59,0.22,0.95c0.07,0.66,0.44,1.17,0.29,2.05c0.07,0.37,0.15,0.73,0.15,1.1
		c0.07,0.51-0.15,0.81-0.59,0.81c-0.66-0.07-1.69,0.15-2.35,0.22c-0.15,0.07-0.29,0.22-0.22,0.44c0,0.37,0,0.73,0.07,1.03
		c0.07,0.66,0.37,0.88,0.95,0.95c0.66,0,1.76,0,2.49-0.22c0.66,0.44,1.47,0.07,2.27,0.15h1.76v-0.07h0.88
		c1.39,0.15,2.71,0,4.11-0.22c0.51-0.07,0.88-0.51,0.88-1.1c0-1.54-0.07-1.69-1.32-1.54c-0.22,0-0.51,0-0.66,0.07
		c-0.29,0.22-0.66,0.07-0.73-0.29c-0.22-0.66-0.29-1.32-0.44-2.05c-0.66-5.87-1.39-6.45-1.03-6.67c0.15-0.07-0.88-3.96-0.88-6.01
		c-0.59-1.83-0.44-3.89-1.1-5.72c-0.15-0.29-0.07-0.59-0.07-0.95c-0.22-1.91-0.66-3.74-1.03-5.57c-0.07-0.29-0.15-0.66-0.15-0.95
		c0-1.39-0.44-2.71-0.66-3.96c-0.15-0.66-0.44-1.17-0.37-1.83c0.07-1.25-0.37-2.49-0.51-3.81c-0.22-1.25-0.44-2.49-0.81-3.74
		c-0.37-1.17-0.51-2.49-0.51-3.74c0-0.07-0.07-0.15-0.07-0.22c-0.22-0.44-0.22-0.88-0.29-1.39c-0.07-0.51-0.22-1.03-0.29-1.54
		c-0.37-1.91-0.66-3.81-0.95-5.79c-0.22-1.39-0.81-2.27-0.59-3.74l-0.37-1.25c-0.07-0.81-0.44-0.73-1.1-0.81
		c-0.95,0-1.83,0-2.79,0.07c-0.59,0-0.73,0.22-0.88,0.95c-0.29,1.32-0.44,2.64-0.73,3.96c-0.07,0.59-0.29,1.1-0.22,1.61
		c0,1.1-0.29,2.13-0.51,3.23c-0.07,0.66-0.15,1.32-0.37,1.98c-0.29,1.1-0.07,2.27-0.59,3.37c0.07,1.17-0.37,2.2-0.37,3.37
		c0,1.32-0.51,2.57-0.44,3.81c-0.37,0.66-0.29,1.39-0.29,2.05c0,0.73-0.37,1.39-0.29,2.2c0,1.39-0.37,2.79-0.59,4.18
		c-0.29,1.91-0.59,3.89-0.81,5.79c-0.22,1.54-0.22,3.15-0.51,4.69c-0.15,0.95-0.07,1.91-0.37,2.79c-0.29,1.03-0.29,2.13-0.51,3.15
		c-0.22,1.17-0.59,2.27-0.44,3.45c-0.44,1.1-0.29,2.27-0.59,3.37c-0.37,1.54-0.59,3.52-0.81,5.13c-0.07,0.73-0.22,1.03-1.17,0.95
		c-0.44,0-0.81,0.15-1.17,0.44c-0.29,0.15-0.37,0.44-0.37,0.81v0.37c0,0.81,0.59,1.47,1.25,1.17c0.66-0.37,1.69-0.15,2.35,0
		C85.52,261.33,86.33,260.89,86.77,261.41z"/>
	<path class="st0" d="M122.49,261.41c0.88,0.51,1.61-0.07,2.42,0c0.88,0,1.61-0.37,2.35-0.88c0.73-0.59,1.47-1.1,1.83-1.91
		c0.51-1.03,1.03-2.13,1.17-3.3c0.22-1.03,0.59-2.05,0.88-3.08c0.22-0.73,0.59-1.54,0.51-2.35c-0.07-0.66,0.07-1.25,0.37-1.83
		c0.44-0.88,0.29-1.91,0.29-2.86c0-0.59,0-1.25,0.22-1.83c0.29-0.81,0.29-0.95-0.51-1.25c-0.59-0.22-0.73-0.15-1.32,0
		c-0.37,0-0.73,0.29-0.81,0.73c-0.07,0.44-0.29,0.81-0.37,1.17c0,0.44,0.22,0.81,0.15,1.17c-0.15,1.03-0.51,1.98-0.59,3.01
		c-0.07,0.95-0.15,1.83-0.37,2.79c-0.22,1.03-0.73,1.98-1.17,2.93c-0.15,0.29-0.07,0.66-0.15,1.03c-0.29,1.54-0.73,1.47-2.05,2.57
		c-0.37,0.22-0.81,0.29-1.17,0.07c-1.17,0-1.54-0.51-1.98-1.25c-0.29-1.47-1.1-2.27-1.47-3.67c-0.44-1.54-0.73-2.49-0.73-4.18
		c0-0.15-0.07-0.22-0.07-0.37c-0.44-1.76-0.73-3.96-0.66-5.57c0-0.95,0.15-1.98-0.15-2.86c-0.29-1.25-0.22-4.18-0.29-5.35
		c0-0.88,0.07-1.76,0-2.71c0-0.95-0.07-1.91-0.07-2.86c0-0.88,0.07-1.76,0-2.64c-0.22-0.95,0.15-1.83,0-2.79
		c0-0.51,0.07-1.03-0.07-1.39c-0.22-0.51,0.15-0.95,0.07-1.39v-1.47c0.07-0.59-0.07-1.25,0.15-1.83c0.37-1.03,0.29-2.13,0.29-3.23
		c0.07-1.47,0.07-2.93,0.44-4.47c0.29-1.1,0.59-2.2,0.51-3.37c0-0.29,0.07-0.51,0.15-0.81c0.22-0.66,0.44-1.25,0.59-1.91
		c0.37-1.25,0.73-2.35,1.76-3.08c0.15-0.15,0.81-0.22,0.95-0.15c0.29,0.15,0.59,0.29,0.81,0.59c0.59,0.73,1.1,1.47,1.39,2.35
		c0.51,1.47,0.88,3.01,1.17,4.55c0.15,0.95,0.15,2.05,0.51,3.01c0.29,0.81,0.15,1.76,0.44,2.57c0.29,0.88,0.29,1.76,0.29,2.64
		c0,0.66,0.29,1.32,0.44,1.98c0.15,0.66,0.44,0.95,1.1,1.03c0.37,0,0.73,0,1.1-0.07c0.22,0,0.66-0.44,0.59-0.66
		c-0.44-1.47,0-2.86-0.22-4.33c0-1.47,0.15-3.01,0.22-4.47c0.07-1.54-0.44-3.15,0.15-4.69c0.07-0.15,0-0.37,0-0.59
		c0-1.1,0-2.2,0.07-3.3c0-0.59,0-1.17,0.29-1.76c0.15-0.44-0.22-1.03-0.73-1.1c-0.22-0.07-0.51-0.07-0.81,0
		c-0.44,0-0.81,0.07-1.03,0.51c-0.37,0.95-1.03,1.83-1.25,2.86c0,0.15-0.37,0.15-0.44-0.07c-0.37-0.81-1.25-1.25-1.76-1.98
		c-0.22-0.29-0.59-0.44-0.88-0.51c-1.91-0.66-3.81-0.59-5.72-0.22c-1.47,0.22-2.79,1.03-3.67,2.2c-1.25,1.54-2.35,3.23-2.86,5.21
		c-0.37,1.54-1.1,3.15-1.61,4.69c-0.22,0.88-0.44,1.69-0.44,2.57c0,0.37-0.07,0.73-0.15,1.03c-0.37,1.03-0.22,2.13-0.59,3.23
		c-0.22,0.51-0.15,1.17-0.15,1.83c0,0.59-0.37,1.1-0.07,1.76c-0.37,0.51-0.29,1.17-0.29,1.76c0,0.59,0,1.1-0.07,1.69
		c0,0.59,0,1.17-0.07,1.83c-0.15,0.44,0.07,1.03,0.07,1.54c0,1.1,0.07,2.2-0.15,3.23c0.29,2.35,0.22,6.45,0.22,8.87
		c0,1.54,0.73,3.96,0.73,5.5c0.44,0.73,0.29,0.59,0.51,1.32c0.22,0.81,0.44,1.61,0.44,2.42c0,0.22,0.07,0.37,0.15,0.59
		c0.51,1.32,0.66,2.79,1.47,4.03c0.51,2.13,1.98,3.74,3.59,5.21c1.47,1.25,3.15,2.35,5.28,2.27
		C121.97,261.33,122.27,261.33,122.49,261.41z"/>
	<path class="st0" d="M136.57,261.19c0.81-0.07,0.81,0.07,1.54-0.22c0.59-0.15,1.1-0.15,1.61,0.07c0.29,0.07,0.66,0.07,1.03,0.15
		c0.73,0,1.54,0.15,2.2,0c0.81-0.22,1.47,0.15,2.2,0c0.29-0.07,0.66,0,1.03-0.15c0.66-0.22,0.88-0.07,1.54-0.07h1.17
		c0.22-0.07,0.37-0.22,0.51-0.29c0.37-0.37,0.44-1.61,0.22-1.98c-0.29-0.37-0.81-0.22-1.17-0.22c-0.37-0.07-0.88-0.15-1.25-0.15
		c-0.29,0,0.07-0.51-0.07-0.81c-0.44-0.81,0-1.25,0-2.13c0-2.2-0.66-4.55-0.22-6.75c0.29-1.83,0.22-4.77,0.22-7.19
		c0-1.25,0.29-2.42,0.07-3.59c0.29-0.66,0.44-1.39,0.22-2.05c-0.22-0.66,0.29-1.32-0.15-1.91c-0.15-0.15-0.07-0.51,0-0.81
		c0.07-0.22,0.29-0.51,0.15-0.73c-0.51-1.32-0.15-2.71-0.29-4.11c0-0.44,0.22-0.59,0.59-0.59c1.25-0.07,2.49-0.07,3.74-0.07h2.42
		c0.95,0,0.95,0.07,1.03,0.88v0.81c0,1.61-0.07,6.38,0,6.97c-0.15,0.51,0.15,0.37,0,0.66c-0.22,0.59,0,1.91,0,2.86v2.42
		c0,0.81-0.37,1.76,0,2.49c0.22,0.51-0.07,1.61-0.07,2.42c0,0.88,0.07,1.69,0.07,2.49v2.49c0,0.81,0.15,1.61-0.07,2.42
		c-0.15,0.81,0.22,1.69-0.22,2.42c0.15,0.44,0.22,0.81,0,1.17c-0.29,0.59-1.1,0.37-1.54,0.44c-0.07,0-0.22,0-0.37,0.07
		c-0.37,0-0.51,0.22-0.51,0.51c0,0.59-0.22,1.32,0.29,1.76c0.37,0.37,1.17,0,1.69,0.07c0.37,0,0.81,0.15,1.17,0.07
		c0.66-0.07,6.31,0.07,6.97-0.07c0.51-0.22,1.32,0,1.91-0.07c0.22-0.07,0.37-0.07,0.59-0.07c0.44,0.07,0.73-0.22,0.73-0.51
		c0.15-2.13,0.37-2.2-1.76-2.13c-0.22,0-0.37,0.15-0.59,0.15c-0.44,0.07-0.51,0-0.51-0.37c-0.07-1.69,0.07-4.33,0.07-6.01
		c-0.15-2.64-0.37-4.33-0.07-6.6c0.29-10.41-0.44-11.07-0.22-11.07c0.22,0,0.22-0.88,0.22-1.32v-8.51c-0.44-2.35-0.15-4.62,0-6.75
		c-0.07-1.91,0.15-3.96,0-5.87c-0.15-1.32-0.29-2.71-0.22-4.03c0-2.13,0.15-3.89,0.07-6.01c-0.07-0.59-0.07-0.59,0.37-0.59
		c0.66,0,1.32,0,2.05-0.07c0.29,0,0.88-0.73,0.81-1.03c-0.15-0.44-0.29-0.95-0.44-1.32c-0.07-0.15-0.37-0.15-0.51-0.07
		c-1.1,0.37-7.55-0.15-8.73,0c-0.51,0.07-1.1,0.07-1.61,0c-0.51,0-1.03,0.44-1.54,0.07c-0.22-0.15-0.44,0.07-0.44,0.29
		c-0.07,0.29-0.07,0.66-0.15,0.95c-0.15,0.81,0.07,1.25,0.59,1.1c0.37-0.07,0.81,0.15,1.1,0.07c0.37,0,0.73,0,0.81,0.37
		c0,0.44-0.29,0.88-0.15,1.32c0.51,1.61,0,3.08,0,4.69c0.07,0.66,0.22,1.25,0.15,1.83c-0.07,0.59-0.15,1.17,0.07,1.76
		c-0.37,0.95,0.07,1.98,0,2.93c-0.07,1.54,0,3.15,0,4.69h0.07c0,1.03,0,2.05-0.07,3.08c-0.07,1.1,0.29,2.2-0.22,3.23h-2.86
		c-0.22,0-0.51,0.15-0.81,0.07c-0.51-0.15-0.95,0.29-1.54,0.15c-0.59-0.15-1.25-0.07-1.83-0.15c-0.51,0-0.73-0.37-0.66-0.95
		c0-0.66,0.22-1.47,0-2.05c-0.29-0.81-0.22-1.61-0.22-2.42v-8.58c0-0.44-0.15-0.88,0.07-1.25c0.37-0.81,0.22-1.61,0.22-2.42
		c0.07-1.61,0.07-3.3,0.07-4.91c-0.07-1.83-0.29-1.39,1.32-1.39c0.29-0.07,0.59-0.07,0.81-0.15c0.22,0,0.37-0.15,0.37-0.37
		c0-0.37,0.07-0.73,0.07-1.03c0-0.95-0.22-1.1-1.17-0.81c-0.66,0.15-0.95,0-1.61,0c-2.2,0-4.4,0-6.6,0.07c-0.29,0-0.59,0.07-0.81,0
		c-0.37-0.07-0.66,0.37-0.95,0.15c-0.59-0.29-1.1,0.07-1.54,0c-0.66-0.07-1.17,0.07-1.76,0.07c-0.22,0-0.37,0.37-0.37,0.66v0.37
		c-0.07,0.59,0.15,0.95,0.59,1.25c0.37,0.29,0.66,0.29,1.1,0.07c0.66-0.22,1.32-0.15,2.05-0.07c0.07,0.07,0.15,0.22,0.15,0.37
		c0,0.37-0.29,0.73-0.07,1.17c0.22,0.44,0.15,1.03,0.15,1.61c0.07,2.93,0.07,5.87,0.15,8.8c0,0.37-0.15,0.88,0,1.17
		c0.37,0.88,0.29,1.76,0.29,2.64v10.93c0.07,0.66-0.22,1.25-0.15,1.91c0,0.22-0.15,0.44-0.07,0.59c0.44,1.25,0.22,2.49,0.22,3.67
		v4.77c0,0.73,0.07,1.47-0.07,2.2c-0.15,0.88,0.15,1.61,0.07,2.42c0,4.33,0.15,8.8-0.07,12.83c0.07,0.66,0.29,1.47,0.07,1.76
		c-0.15,0.29-0.73,0.15-1.76,0.15h-1.03c-0.44,0-0.88,0.44-0.88,0.95c0,0.37,0.07,0.66,0.07,1.03
		C135.76,260.75,136.2,261.19,136.57,261.19z"/>
	<path class="st0" d="M174.49,261.33c0.81-0.29,1.54,0.15,2.35,0c0.15,0,0.29,0.07,0.37,0c0.81-0.44,1.61-0.29,2.42-0.29
		c2.42-0.07,6.53-0.07,8.95-0.07c0.73,0,1.47-0.22,2.13-0.44c0.37-0.07,0.59-0.44,0.51-0.73c-0.44-1.17-0.37-2.42-0.44-3.67
		c0-1.03,0.15-2.05-0.22-3.01c0-0.15,0-0.29,0.07-0.37c0.29-1.61,0-3.3,0.07-4.91c0.07-1.17-0.88-1.83-2.05-1.54
		c-0.29,0.07-0.59,0.29-0.59,0.73c0,1.03-0.37,2.13-0.51,3.15c-0.22,1.03-0.29,2.05-0.73,2.93c-0.51,1.03-0.37,2.13-0.88,3.15
		c-0.22,0.51-0.29,1.17-0.44,1.76c-0.07,0.29-0.22,0.51-0.51,0.51h-4.84c-0.29,0-0.44-0.22-0.29-0.51c0.07-0.22,0.15-0.44,0-0.59
		c-0.29-0.44-0.15-0.95-0.22-1.39c0-0.37,0.29-0.88,0.15-1.17c-0.22-0.44,0.07-0.95-0.37-1.32c-0.22-0.22,0.07-0.37,0.15-0.51
		c0.07-0.95,0.73-1.76,0.15-2.79c-0.15-0.22-0.15-0.66,0-0.95c0.22-0.51,0.15-0.88,0-1.32c-0.15-0.51,0.29-0.95,0.07-1.61
		c-0.51-1.39,0-2.93-0.44-4.4c-0.07-0.22,0-0.51,0.07-0.81c0.29-0.95,0.22-1.98,0.15-3.01c0-0.66,0.07-1.39-0.07-2.05
		c-0.15-0.73,0.22-1.39,0.15-2.13c-0.07-1.39-0.07-2.79,0-4.11v-2.27c0-0.07,0.15-0.22,0.29-0.29h4.33c0.15,0,0.29,0.15,0.37,0.37
		c0.22,0.51,0.15,0.66,0.07,1.17c0,0.59,0.07,1.25,0.07,1.83c0,0.51,0.22,0.88,0.44,1.32c0.07,0.22,0.51,0.59,0.73,0.59
		c0.29,0,0.44-0.29,0.73-0.29c0.37,0,0.51-0.15,0.59-0.44v-0.66c0-1.83,0-3.67-0.07-5.5c-0.07-1.83-0.29-3.37-0.15-5.21
		c0.07-0.07,0-0.15,0-0.22c-0.07-0.37-0.66-0.73-0.95-0.66c-0.29,0.07-0.59,0.22-0.95,0.29c-0.37,0.07-0.59,0.29-0.59,0.73
		c0,1.17,0.07,2.42,0.07,3.67c0,0.29-0.22,0.51-0.51,0.51l-3.37,0.07c-1.25,0-1.1-0.22-1.17-1.1c0-0.95,0.07-1.98,0.07-2.93
		c0-0.29-0.22-0.59-0.22-0.88c0.37-2.35,0.07-4.47,0.15-6.75c0.07-0.44-0.22-0.81-0.22-1.17c-0.07-0.51,0.22-0.95,0.22-1.39v-4.55
		h0.07c0-1.54-0.07-3.15,0-4.69c0-0.29,0.15-0.51,0.44-0.51c3.01,0,4.18-0.73,5.43,2.49c0.15,0.44,0.29,0.81,0.37,1.17
		c0.22,1.25,0.73,2.35,1.03,3.52c0.22,0.81,0.59,1.61,0.59,2.57c0,0.29,0.29,0.44,0.59,0.44h0.59c0.81,0,1.1-0.29,1.25-1.03
		c0.15-1.03-0.44-1.98-0.07-2.93c0.07-0.15,0.07-0.29,0-0.44c-0.37-0.59-0.22-1.32-0.22-1.98c-0.07-1.39,0-2.71,0-4.11
		c-0.07-0.95-0.22-1.1-1.1-1.54c-0.51-0.29-1.03,0.29-1.54-0.15c-0.15-0.15-0.44-0.15-0.59-0.07c-0.66,0.29-2.2,0-2.86,0
		c-2.13,0-5.21-0.44-7.33,0.22c-0.66-0.51-1.17-0.15-1.76-0.15h-2.86c-0.88,0-1.76,0.07-2.64,0.07c-0.81,0-1.25,0.29-1.54,0.81
		c-0.22,0.37,0.22,0.73,0.22,1.1c0,0.37,0.29,0.51,0.51,0.51c0.44,0.07,1.03,0,1.39,0c1.03-0.07,1.1,0,1.1,0.95
		c0.07,0.59,0.07,1.47,0.15,2.05c0,0.66-0.07,1.32,0,1.91c0.15,0.73,0.22,1.47,0.22,2.27c0,2.05-0.15,4.18,0.22,6.23
		c0.22,1.17-0.22,3.74-0.22,5.65c0,1.54,0,3.15,0.07,4.69c0.07,1.54-0.29,3.15,0.29,4.62c0.07,0.07,0.07,0.15,0,0.22
		c-0.51,0.51,0,1.03,0,1.54c0,1.1,0.15,2.27-0.22,3.45c-0.22,0.66-0.22,1.47,0.15,2.2c0.15,0.44,0.07,0.95,0,1.39
		c-0.29,1.76-0.29,3.52,0,5.28c0.15,0.95,0.22,1.91,0,2.86c-0.22,1.03-0.22,2.13-0.22,3.23v6.75c0,0.44,0,0.81-0.07,1.25
		c0,0.29-0.15,0.51-0.51,0.51c-0.29,0-0.66,0.07-0.95,0.07c-0.66,0-1.25,0.07-1.83,0.37c-0.29,0.15-0.37,0.29-0.37,0.59
		c-0.07,0.22-0.07,0.44,0,0.59c0.07,0.81,0.51,1.25,1.32,1.03c1.17-0.22,2.35-0.22,3.45,0
		C172.87,261.26,173.75,261.55,174.49,261.33z"/>
	<path class="st0" d="M205.88,229.72c-0.07,0-0.29-0.07-0.37-0.15c-0.07-0.15-0.07-0.29-0.07-0.44c0.07-0.66-0.22-1.25-0.07-1.98
		c0.22-2.05,0.15-3.15,0.07-5.28c-0.73-3.01-0.29-5.06-0.37-8.07v-2.86c0-0.95-0.07-1.91,0.29-2.86c0.22-0.44,0.07-1.1,0.07-1.61
		v-5.13c0-0.37,0.22-0.44,0.66-0.37c0.22,0.07,0.51,0.07,0.81,0.15c2.13,0.51,2.35,0.37,3.67,2.42c0.81,0.95,0.22,2.2,0.81,3.3
		l0.22,0.73c0.44,2.35,0.95,4.69,0.73,6.89v2.05c0,0.66,0.07,1.39-0.22,1.98c-0.07,0.22-0.07,0.44-0.07,0.66
		c0,2.2,0.07,2.79-0.59,4.84c-0.37,1.17-1.1,2.79-1.83,3.81c-0.29,0.37-0.44,0.51-0.88,0.81
		C207.56,229.57,207.2,229.13,205.88,229.72z M193.85,261.11h9.24c0.73,0,1.54,0.07,2.2-0.15c0.81-0.22,1.47,0,2.2,0.07
		c0.15,0,0.37-0.15,0.51-0.22c0.29-0.15,0.51,0,0.81,0c0.59,0.22,0.59,0.15,0.88-0.44c0.15-0.37,0.44-0.66,0.22-1.1
		c-0.29-0.73-0.88-1.1-1.61-1.03c-0.88,0.07-1.69,0.22-2.57,0.29c-0.73,0.07-0.73,0.07-0.66-0.73v-17.24c0-0.51,0.07-0.95,0.22-1.39
		c0.22-0.59,0.22-1.25,0-1.83c-0.07-0.15-0.22-0.44-0.15-0.59c0.44-0.73,0.22-3.37,0.29-4.18c0-0.15,0.07-0.29,0.15-0.37
		c0.22-0.15,0.37-0.29,0.66-0.22c0.29,0,0.37,0.07,0.44,0.29c0.22,0.73,0.44,1.39,0.73,2.13c0.22,0.59,0.44,3.01,0.59,3.67
		c0.66,2.2,1.17,4.47,2.13,6.6c0.15,0.15,0.22,0.37,0.22,0.51c0.37,1.91,1.1,3.67,1.32,5.57c0.51,1.1,0.22,2.42,1.17,3.37
		c0.44,1.54,1.47,3.37,1.91,4.91c0.22,0.66,1.54,1.03,1.91,1.61c0.15,0.29,1.83,0.37,2.2,0.37h4.77c0.51,0,0.81-0.44,0.88-0.95
		v-0.59c0.07-0.59-0.15-0.81-0.66-0.88c-0.95,0-0.29-0.07-1.25-0.22c-0.95-0.15-1.17-1.03-1.25-1.32c-0.59-1.54-0.37-2.35-1.1-3.81
		c-0.59-1.1-0.95-2.35-1.25-3.59c-0.29-1.47-0.66-2.93-1.03-4.4c-0.37-1.54-0.95-3.08-1.39-4.62c-0.44-1.61-1.25-5.13-2.2-6.6
		c-0.95-1.61-3.96-2.05-4.77-2.42c-0.07-0.37-0.15-0.37,0.22-0.44c0.95-0.22,2.86-0.66,3.45-1.39c1.1-1.39,2.49-1.39,3.01-3.15
		c0.15-0.73,1.83-3.37,2.05-4.11c0.73-2.27,1.25-2.79,1.17-5.21c-0.07-0.95-0.07-1.91,0-2.86c0-0.37,0.29-0.88,0.22-1.17
		c-0.37-1.03-0.15-2.05-0.29-3.01c-0.22-1.03-2.05-4.77-2.42-5.72c-0.81-2.2-2.64-2.64-4.33-4.25c-0.66-0.59-2.35-0.59-3.23-0.81
		c-1.69-0.44-3.15-0.15-4.84-0.66c-0.15,0-0.37-0.15-0.59-0.07c-0.95,0.22-1.83-0.22-2.79-0.15c-0.95,0.15-1.91,0.07-2.86,0.07
		h-4.11c-0.29,0-0.59-0.07-0.81,0c-0.37,0.15-0.66,0.37-0.66,0.73c-0.07,0.29,0,0.66,0,1.03c0.07,0.29,0.44,0.66,0.73,0.66
		c0.95-0.07,1.91,0.07,2.79-0.37c0.51-0.22,0.88,0.07,0.88,0.59v5.13c0,0.22,0,0.44-0.07,0.59c-0.37,0.66-0.37,1.39-0.15,2.05
		c0.22,0.73-0.37,1.39-0.07,2.13c0,0.07-0.07,0.15,0,0.22c0.44,0.81,0.29,1.76,0.29,2.64v16.21c0,0.95-0.22,2.05,0.07,3.01
		c0.29,1.1-0.22,1.98-0.07,2.93c0.07,0.29,0.07,0.59,0,0.88c-0.15,2.27,0.29,4.62-0.29,6.89c-0.07,0.37,0,0.81,0,1.25
		c0.07,0.15,0.15,0.37,0.15,0.51c-0.29,1.83-0.29,3.67-0.15,5.5c0,0.44,0,0.81,0.15,1.25c0.07,0.37-0.15,0.88-0.22,1.32
		c0,1.25,0,2.49-0.07,3.67c0,1.1,0,1.1-1.17,1.1c-0.66,0.07-1.39,0-2.05,0.07c-0.44,0-0.81,0.37-0.81,0.73
		c-0.07,0.22-0.07,0.44-0.07,0.66C192.75,260.89,192.97,261.11,193.85,261.11z"/>
	<path class="st0" d="M234.26,261.7c0.37,0.07,0.73,0.07,1.03,0c1.83-0.15,4.25-0.81,5.43-1.83l0.44-0.44
		c0.81-1.25,1.61-1.83,2.27-3.08c0.37-0.59,1.1-4.25,1.17-4.91c0.07-1.54,0.15-4.84,0-6.38c-0.07-0.66-0.51-2.13-0.51-2.79
		c0-0.37,0-0.73-0.15-1.03c-0.44-1.03-0.44-2.2-0.66-3.3c-0.51-2.35-1.1-3.15-2.05-5.28c-0.66-0.51-0.73-1.32-1.03-1.98
		c-0.59-1.47-1.47-2.71-2.35-4.03c-0.81-1.1-1.39-2.35-2.05-3.52c-0.29-0.51-0.44-1.17-0.81-1.54c-0.59-0.51-0.95-2.2-1.47-2.35
		c-0.59-0.15-0.15-0.59-0.44-1.03l-0.66-1.1c-0.81-1.32-1.17-1.69-1.91-3.08c-0.73-1.17-0.95-1.83-1.39-3.15
		c-0.59-1.69-0.59-1.1-0.51-3.37c0-0.81-0.29-0.88,0-2.05c0.37-1.25,0.95-2.35,1.91-3.3c0.81-0.88,1.98-0.95,2.93-1.61h0.22
		c1.69-0.15,3.15,0.37,3.89,1.98c0.95,1.76,1.83,2.64,1.61,4.84c0,0.22,0,0.51,0.07,0.66c0.44,0.81,0.51,1.83,0.59,2.64
		c0,0.81,0.29,3.08,0.37,3.81c0,0.37,0.22,0.44,0.51,0.44c0.59,0,1.1,0,1.69-0.07c0.22,0,0.37-0.15,0.44-0.37
		c0.15-0.66,0.37-2.79,0.37-3.52c-0.07-1.03-0.15-2.2,0.07-3.3c0.22-1.03,0.22-2.05,0.22-3.08c0-1.54-0.07-3.08,0.37-4.62
		c0.07-0.29,0-0.59,0-0.81c0-0.51-0.37-0.88-0.88-1.03c-0.37-0.07-0.81,0.15-1.03,0.51c-0.07,0.15-0.15,0.22-0.15,0.37
		c-0.22,0.73-0.81,1.32-1.17,1.98c-0.29,0.44-0.44,0.44-0.66,0.07c-0.37-0.66-0.81-1.32-1.54-1.61c-1.47-0.73-3.01-1.25-4.62-1.17
		c-1.17,0-2.13,0.29-3.15,0.73c-1.76,0.88-3.01,1.69-3.96,3.3c-0.29,0.44-0.88,0.59-1.1,1.1c-0.88,1.61-1.25,1.47-1.32,3.37
		c-0.44,1.39-0.88,3.15-0.88,4.47c-0.07,1.25,0,2.49,0.07,3.67c0.59,1.32,0.66,2.79,1.1,4.11c0.22,0.73,0.29,1.47,0.66,2.13
		c0.59,1.47,2.05,4.03,1.76,4.18c0.81,0.44,1.03,1.61,1.39,2.35c0.44,0.88,1.76,2.42,1.32,2.71c0.15,0.73,1.1,2.35,1.91,2.35
		c-0.37,0.59,0.37,1.47,0.88,2.57c0.44,1.1,1.47,1.98,1.76,3.23c1.1,1.32,1.76,2.86,2.64,4.33c1.17,2.05,2.27,4.55,2.93,6.82
		c0.29,1.17,0.29,4.11,0,5.28c-0.51,1.61-1.39,2.35-2.64,3.45c-0.66,0.51-1.39,0.73-2.2,0.88c-0.88,0.15-1.83-0.15-2.57-0.51
		c-1.03-0.59-1.25-1.47-1.98-2.35c-0.22-1.03-0.88-1.47-1.1-2.49c-0.29-1.32-0.95-2.42-0.95-3.74c-0.07-1.25-0.73-2.79-0.73-3.96
		c-0.07-0.88-0.15-2.2-0.15-3.08c-0.07-0.66-0.44-0.59-1.17-0.59h-0.81c-0.51,0.07-0.81,0.44-0.88,0.95
		c-0.15,1.98,0.22,3.96-0.29,5.94v0.15c0.22,0.37,0.15,0.66,0.07,0.95c-0.15,0.81,0,1.76-0.15,2.57c-0.15,0.81-0.07,1.54-0.07,2.42
		c0,1.32,0.15,3.67-0.22,4.99c-0.15,0.44,0.44,0.66,0.88,0.81c1.03,0.22,0.73-0.37,1.32-1.25c0.51-0.51,0.81-1.17,1.1-1.76
		l0.15-0.37c0.07-0.15,0.44-0.22,0.51-0.07c0.73,1.25,1.61,2.57,2.86,3.08C232.06,261.41,233.01,261.48,234.26,261.7z"/>
	<path class="st0" d="M253.99,218.35h0.22c0.37,0,0.66-0.22,0.59-0.59c0-1.1,0.22-2.2,0.44-3.23c0.44-1.83,0.81-3.59,0.88-5.43
		c0.07-1.1,0.22-2.27,0.44-3.45c0.22-0.88,0.29-1.83,0.37-2.71c0-0.59,0.07-1.17,0-1.69c-0.29-2.2-1.61-3.37-3.67-3.3
		c-1.1,0-2.2,0.29-2.93,1.25c-0.22,0.29-0.44,0.51-0.66,0.73c-0.44,0.44-0.51,0.95-0.66,1.47c-0.22,0.59,0.22,1.17-0.07,1.76
		c-0.29,0.44-0.22,0.88,0,1.39c0.22,0.59,0.44,1.25,0.51,1.91c0.22,1.61,0.37,3.23,1.1,4.69c0.15,0.22,0.15,0.51,0.15,0.81
		c0,0.51,0.15,1.1,0.29,1.61c0.22,1.1,0.59,2.2,0.95,3.3C252.3,218.13,252.6,218.35,253.99,218.35z"/>
	<path class="st0" d="M125.06,344.18c-0.37,0.15-0.81,0.07-0.81-0.29c0-3.01-0.15-4.77-0.15-7.77l0.15-1.54
		c0-2.49,0.37-4.62,0.29-7.11c0-1.03,0.15-2.05-0.29-3.01c-0.15-0.44-0.07-0.95-0.07-1.47c-0.07-0.95,0.07-1.98-0.29-3.01
		c-0.07-0.22,0.22-0.51,0.15-0.73c-0.29-0.81-0.07-1.61-0.22-2.35c-0.15-0.88-0.07-1.76-0.07-2.64c-0.07-0.88-0.07-1.69-0.07-2.49
		s0.07-1.61,0-2.49c-0.07-0.88,0.29-1.91-0.22-2.79c0.44-0.81,0.15-1.69,0.07-2.57c0-0.66,0.37-1.25,0-1.98
		c-0.37-0.66-0.15-1.47-0.15-2.2v-6.38c0-0.66,0.07-1.32,0-2.05c-0.07-0.73-0.07-1.39,0.07-2.13c0-0.15,0.51-0.15,0.73-0.15
		c0.88,0,1.98-0.22,2.64,0.44c0.66,0.59,1.32,1.76,1.76,2.57c0.22,0.44,0.37,0.88,0.51,1.32c0.51,1.54,0.88,3.96,1.17,5.57
		c0.29,1.32,0.59,3.52,0.51,4.91c0.59,1.61,0.07,3.37,0.66,4.99c0.15,0.37,0.07,0.81,0.07,1.25c0.07,0.88,0,1.76,0.15,2.64
		s-0.07,1.76-0.07,2.64c0.07,1.03,0,2.13,0.22,3.23c0.22,0.81,0.15,1.76,0,2.64c-0.15,0.59-0.22,1.17-0.22,1.83
		c0,1.61-0.07,3.23-0.07,4.91c0,0.44,0,0.95-0.22,1.39c-0.15,0.22-0.15,0.51-0.15,0.81c-0.07,2.42-0.88,4.77-1.25,7.19
		c-0.22,1.1-0.44,2.86-1.25,3.81c-0.51,0.66-0.95,1.47-1.54,2.13C126.67,343.96,125.94,343.89,125.06,344.18z M113.39,348.36
		c0.66-0.22,1.25-0.15,1.83-0.29c0.59-0.07,1.1,0.37,1.76,0.22c0.59-0.22,1.17-0.07,1.83-0.07c1.1-0.07,2.2,0,3.23-0.29
		c0.22-0.07,0.37,0.07,0.59,0.07c0.66,0,1.32,0.29,1.91-0.15c0.15-0.15,0.37-0.07,0.59,0c0.15,0.07,1.17-0.07,1.25-0.15
		c1.1-0.73,2.86-0.44,3.67-1.47c0.66-0.95,2.93-2.57,3.59-3.52c1.03-1.39,3.23-4.11,3.45-5.94c0.51-0.95,0.44-2.93,1.03-3.89
		c-0.07-1.39,1.03-3.01,0.95-4.4c0-0.59,0.07-0.59,0.15-1.17c0-0.59-0.07-1.1,0-1.69c0-0.59,0-1.17,0.15-1.76
		c0.22-1.17,0.22-2.27,0.22-3.45v-7.99c0-0.73,0-1.47-0.29-2.2c-0.07-0.22-0.07-0.51-0.07-0.81c-0.15-2.05-0.07-4.03-0.44-6.09
		c-0.22-1.32-0.95-3.3-1.32-4.62c-0.59-2.49-1.54-4.77-2.93-7.04c-0.29-0.51-1.54-1.76-1.83-2.27c-0.88-1.69-2.42-1.76-4.03-2.64
		c-1.61-0.81-5.94-0.81-7.85-0.73c-2.49,0.15-5.06,0.07-7.63,0.07c-0.15,0-0.37-0.15-0.59-0.15c-0.37-0.07-0.73,0.29-0.73,0.73
		c0,0.51,0.29,0.88,0.44,1.32c0.15,0.29,0.44,0.51,0.88,0.51h1.61c0.59,0.07,0.73,0.22,0.73,0.73c0.07,0.51,0.07,1.1,0,1.61
		c0,1.17,0.44,2.57,0,3.45c-0.44-0.07,0,4.47,0,6.67c-0.07,0.66,0.37,1.83-0.07,1.98c-0.37,0.15,0.37,3.89,0.37,5.87
		c-0.37,2.79-0.29,9.09-0.22,13.64c0,0.29-0.15,0.73,0,1.03c0.44,1.1,0.29,2.27,0.29,3.37v4.55c0,1.03-0.29,3.15,0,3.08
		c-0.07,1.98,0,6.97,0,10.41c0,0.59-0.07,0.66-0.73,0.73c-0.37,0-0.81,0-1.17,0.07c-0.29,0-0.59,0.07-0.81,0.15
		c-0.88,0.22-1.03,0.44-0.95,1.25v0.44C112.29,348.07,112.88,348.51,113.39,348.36z"/>
	<path class="st0" d="M147.43,328.56c-0.15,0.07-0.37-0.22-0.37-0.37c0.29-1.1,0.22-2.27,0.44-3.37c0.22-0.88,0.07-1.83,0.37-2.64
		c0.22-0.81,0.15-1.61,0.22-2.42c0.07-0.66,0.22-1.32,0.37-1.98c0.37-2.13,0.51-4.25,0.95-6.38v-0.15c0-2.05,0.51-4.03,0.73-6.01
		l0.44-3.45l0.15-0.15c0,0.07,0.07,0.07,0.07,0.15c0.15,0.81,0.37,1.61,0.37,2.42c0,1.39,0.59,2.64,0.44,4.03
		c0.44,1.61,0.51,3.3,0.81,4.99c0.22,1.32,0.59,2.57,0.66,3.96c0,0.29,0.15,0.66,0.22,0.95c0.22,1.39,0.15,2.79,0.73,4.03
		c0.44,1.03,0.29,2.27,0.66,3.45c0.07,0.73,0.29,1.32,0.44,1.98c0.07,0.37-0.15,0.59-0.51,0.66c-0.88,0.15-2.13,0.15-3.37,0h-2.64
		C148.16,328.27,147.79,328.34,147.43,328.56z M144.79,348.66c0.59-0.15,1.54-0.51,2.13-0.07c0.29-0.15,0.66-0.29,0.95-0.51
		c0.44-0.44,0.51-1.69,0.07-2.13c-0.37-0.29-0.81-0.22-1.32-0.15c-0.37,0.07-1.25,0.07-1.61,0.07c-0.29-0.07-0.44-0.22-0.44-0.51
		c0.15-0.95,0.22-2.27,0.37-3.23c0.07-0.22,0.15-0.51,0.15-0.73c0.29-1.47,0.73-2.93,0.81-4.4c0.15-1.83,0.51-3.59,0.81-5.43
		c0.07-0.29,0.22-0.37,0.44-0.51c0.37-0.37,0.81,0,1.17-0.22c0.73,0.44,1.47,0.22,2.2,0.22c0.88,0,1.76-0.07,2.64-0.07
		c0.59,0.22,1.32-0.22,2.13,0.15c0.29,0,0.44,0.07,0.51,0.44c0.15,0.81,0.66,2.42,0.44,2.57c-0.22,0.15,0.51,1.61,0.44,2.57
		l0.22,1.25c0.22,1.03,0.44,1.98,0.37,3.01c0,0.29,0.15,0.59,0.22,0.95c0.07,0.66,0.44,1.17,0.29,2.05c0.07,0.37,0.15,0.73,0.15,1.1
		c0.07,0.51-0.15,0.81-0.59,0.81c-0.66-0.07-1.69,0.15-2.35,0.22c-0.15,0.07-0.29,0.22-0.22,0.44c0,0.37,0,0.73,0.07,1.03
		c0.07,0.66,0.37,0.88,0.95,0.95c0.66,0,1.76,0,2.49-0.22c0.66,0.44,1.47,0.07,2.27,0.15h1.76v-0.07h0.88
		c1.39,0.15,2.71,0,4.11-0.22c0.51-0.07,0.88-0.51,0.88-1.1c0-1.54-0.07-1.69-1.32-1.54c-0.22,0-0.51,0-0.66,0.07
		c-0.29,0.22-0.66,0.07-0.73-0.29c-0.22-0.66-0.29-1.32-0.44-2.05c-0.66-5.87-1.39-6.45-1.03-6.67c0.15-0.07-0.88-3.96-0.88-6.01
		c-0.59-1.83-0.44-3.89-1.1-5.72c-0.15-0.29-0.07-0.59-0.07-0.95c-0.22-1.91-0.66-3.74-1.03-5.57c-0.07-0.29-0.15-0.66-0.15-0.95
		c0-1.39-0.44-2.71-0.66-3.96c-0.15-0.66-0.44-1.17-0.37-1.83c0.07-1.25-0.37-2.49-0.51-3.81c-0.22-1.25-0.44-2.49-0.81-3.74
		c-0.37-1.17-0.51-2.49-0.51-3.74c0-0.07-0.07-0.15-0.07-0.22c-0.22-0.44-0.22-0.88-0.29-1.39c-0.07-0.51-0.22-1.03-0.29-1.54
		c-0.37-1.91-0.66-3.81-0.95-5.79c-0.22-1.39-0.81-2.27-0.59-3.74l-0.37-1.25c-0.07-0.81-0.44-0.73-1.1-0.81
		c-0.95,0-1.83,0-2.79,0.07c-0.59,0-0.73,0.22-0.88,0.95c-0.29,1.32-0.44,2.64-0.73,3.96c-0.07,0.59-0.29,1.1-0.22,1.61
		c0,1.1-0.29,2.13-0.51,3.23c-0.07,0.66-0.15,1.32-0.37,1.98c-0.29,1.1-0.07,2.27-0.59,3.37c0.07,1.17-0.37,2.2-0.37,3.37
		c0,1.32-0.51,2.57-0.44,3.81c-0.37,0.66-0.29,1.39-0.29,2.05c0,0.73-0.37,1.39-0.29,2.2c0,1.39-0.37,2.79-0.59,4.18
		c-0.29,1.91-0.59,3.89-0.81,5.79c-0.22,1.54-0.22,3.15-0.51,4.69c-0.15,0.95-0.07,1.91-0.37,2.79c-0.29,1.03-0.29,2.13-0.51,3.15
		c-0.22,1.17-0.59,2.27-0.44,3.45c-0.44,1.1-0.29,2.27-0.59,3.37c-0.37,1.54-0.59,3.52-0.81,5.13c-0.07,0.73-0.22,1.03-1.17,0.95
		c-0.44,0-0.81,0.15-1.17,0.44c-0.29,0.15-0.37,0.44-0.37,0.81v0.37c0,0.81,0.59,1.47,1.25,1.17c0.66-0.37,1.69-0.15,2.35,0
		C143.54,348.58,144.34,348.14,144.79,348.66z"/>
	<path class="st0" d="M171.48,348.51c1.1-0.22,2.2-0.15,3.3-0.15h6.89c0.66,0,1.32,0.07,1.83-0.15c0.66-0.29,1.17-0.15,1.76-0.07
		c0.37,0.07,0.81-0.22,1.17-0.37c0.07,0,0.15-0.22,0.15-0.29c-0.07-0.29-0.07-0.59-0.15-0.81c-0.44-0.81-0.66-0.95-1.76-0.88
		c-0.59,0.07-1.1,0-1.61,0c-0.37,0-0.51-0.22-0.51-0.51c0-1.98-0.29-5.5-0.07-5.94c0.22-0.44-0.22-8.36-0.07-8.58
		c0.15-0.29,0.22-2.35,0.07-1.76c-0.51-0.51,0-5.65,0-8.51c0-0.59,0-1.1,0.07-1.61c0-0.51,0.37-1.03,0.22-1.39
		c-0.15-0.59,0.07-1.03,0.29-1.47c0.07-0.15,0.15-0.29,0.15-0.37c0.29-1.91,0.66-3.74,0.81-5.65c0.15-1.1,0.15-2.2,0.59-3.23
		c0.37-1.03,0.15-2.13,0.51-3.15l0.22-0.59c0-0.44,0.15-0.81-0.22-1.17c-0.07-0.15-0.07-0.22,0.07-0.29
		c0.37-0.15,0.51-0.37,0.51-0.81c0.07-0.51,0.22-1.03,0.37-1.54c0.37-1.39,0.73-2.79,0.88-4.18s0.37-2.71,0.73-3.96
		c0.07-0.29,0.07-0.59,0.07-0.81c0.07-2.13,0-1.83,1.98-1.91h1.61c0.44,0,0.73-0.44,0.59-0.88c-0.15-0.37,0.15-0.73,0-1.17
		c-0.07-0.29-0.73-0.37-1.03-0.29c-0.15,0-0.29,0.15-0.37,0.15c-1.76-0.44-3.59-0.07-5.35-0.22c-0.66-0.07-1.32,0.29-1.98,0.37
		c-0.51,0.07-0.88,0.81-0.66,1.32c0.22,0.59,0.66,1.03,1.32,1.1h0.81c0.51,0,0.81,0.37,0.59,0.81c-0.37,1.1-0.37,2.27-0.37,3.45
		c0,0.44-0.07,0.88-0.22,1.39c-0.51,1.76-1.03,3.52-1.32,5.28c-0.37,2.35-0.95,4.62-1.32,6.97c-0.07,0.51-0.37,0.95-0.37,1.39
		c0.07,1.17-0.37,2.27-0.44,3.45c0,0.07-0.29,1.83-0.37,1.83l-0.44-2.05c-0.22-0.88-0.51-1.47-0.51-2.27c0-0.88-0.44-1.69-0.29-2.57
		c0-0.29-0.07-0.59-0.22-0.81c-0.44-1.17-0.59-2.49-1.1-3.67c-0.07-0.22-0.15-0.37-0.07-0.51c0.22-0.44,0.07-0.81,0-1.17
		c-0.66-2.13-0.95-4.25-1.47-6.31c-0.37-1.69-0.59-3.37-1.1-4.99c-0.07-0.29,0.07-0.51,0.37-0.51c0.88,0,1.76,0,2.71-0.07
		c0.37,0,0.73-0.29,0.88-0.73c0.07-0.29,0.22-1.03-0.15-1.32c-0.59-0.51-1.61-0.44-2.35-0.44c-0.73,0.07-1.39,0-2.05,0.07
		c-1.98,0.15-3.15-0.37-5.06,0.22c-1.83-0.66-3.59,0.29-5.35,0.15c-0.73-0.07-1.03,0.59-0.81,1.32c0.51,1.25,0.88,1.17,1.91,1.1
		c0.15-0.07,0.37-0.22,0.51-0.22c0.44-0.15,0.88,0.15,0.95,0.51c0.07,0.59,0,1.25,0.22,1.83c0.22,0.73,0.22,1.47,0.44,2.2
		c0.22,0.73,0.29,1.54,0.37,2.35c0,0.29,0.07,0.51,0.15,0.81c0.59,2.42,1.32,4.84,1.47,7.33c0,0.22,0.29,0.66,0.37,0.81
		c0.22,2.42,1.17,3.96,1.69,6.16c0.37,1.61,0.66,3.52,1.03,5.06c0.22,0.88,0.88,2.57,0.73,3.45c-0.15,0.95,0.22,1.03,0.22,1.98
		c0.15,1.83-0.15,4.4,0,5.13c-0.22,0,0.29,1.1,0,1.39c-0.22,0.22,0.29,3.45,0.07,3.74c-0.29,0.37-0.07,0.81-0.07,1.17
		c0,1.91-0.15,6.23,0.15,6.82c0.22,0.59-0.07,0.81-0.15,0.81c-0.37-0.07,0,3.37,0,5.13c0,0.44-0.15,0.66-0.73,0.66
		c-0.81,0.07-1.69,0-2.49,0.07c-0.51,0-0.95,0.66-0.81,1.17l0.29,0.73C170.45,348.36,170.89,348.58,171.48,348.51z"/>
</g>
</svg>
